<?xml version="1.0" encoding="UTF-8" standalone="no"?>
<!-- Created with Inkscape (http://www.inkscape.org/) -->

<svg
   version="1.1"
   id="svg3324"
   xml:space="preserve"
   width="682.66669"
   height="682.66669"
   viewBox="0 0 682.66669 682.66669"
   xmlns="http://www.w3.org/2000/svg"
   xmlns:svg="http://www.w3.org/2000/svg"><defs
     id="defs3328"><clipPath
       clipPathUnits="userSpaceOnUse"
       id="clipPath3338"><path
         d="M 0,512 H 512 V 0 H 0 Z"
         id="path3336" /></clipPath></defs><g
     id="g3330"
     transform="matrix(1.3333333,0,0,-1.3333333,0,682.66667)"><g
       id="g3332"><g
         id="g3334"
         clip-path="url(#clipPath3338)"><g
           id="g3340"
           transform="translate(300.1396,131.2422)"><path
             d="m 0,0 h -67.614 l -42.056,-42.568 v -81.174 h 65.566 131.128 c 0,18.554 -3.886,36.213 -10.868,52.223 C 61.598,-38.13 33.89,-12.128 0,0"
             style="fill:#fce3a0;fill-opacity:1;fill-rule:nonzero;stroke:none"
             id="path3342" /></g><g
           id="g3344"
           transform="translate(135.7734,59.7227)"><path
             d="m 0,0 c -6.981,-16.011 -10.868,-33.669 -10.868,-52.223 h 65.564 c 3.367,20.621 10.799,39.909 21.485,56.988 V 71.52 C 42.187,59.341 14.484,33.22 0,0"
             style="fill:#ffce71;fill-opacity:1;fill-rule:nonzero;stroke:none"
             id="path3346" /></g><g
           id="g3348"
           transform="translate(325.123,133.4707)"><path
             d="M 0,0 -25.025,25.024 H -113.17 L -138.194,0 c -12.139,-12.14 -12.139,-31.82 0,-43.959 l 25.024,-25.024 h 88.145 L 0,-43.959 C 12.139,-31.82 12.139,-12.14 0,0"
             style="fill:#ffb357;fill-opacity:1;fill-rule:nonzero;stroke:none"
             id="path3350" /></g><g
           id="g3352"
           transform="translate(300.1152,64.4873)"><path
             d="m 0,0 -44.08,-40.835 -6.499,-8.029 6.499,-8.123 H 0.024 Z"
             style="fill:#676fb2;fill-opacity:1;fill-rule:nonzero;stroke:none"
             id="path3354" /></g><g
           id="g3356"
           transform="translate(211.9546,64.4873)"><path
             d="m 0,0 v -56.987 h 44.081 v 16.152 z"
             style="fill:#4c5699;fill-opacity:1;fill-rule:nonzero;stroke:none"
             id="path3358" /></g><g
           id="g3360"
           transform="translate(300.1396,131.2422)"><path
             d="m 0,0 v 0 h -88.185 v -66.754 -10e-4 c 6.901,-20.151 23.46,-35.492 44.081,-40.835 20.619,5.343 37.178,20.684 44.08,40.835 L 0,-66.714 Z"
             style="fill:#d4d4ff;fill-opacity:1;fill-rule:nonzero;stroke:none"
             id="path3362" /></g><g
           id="g3364"
           transform="translate(211.9546,131.2422)"><path
             d="m 0,0 v 0 -66.754 c 7.193,11.498 15.87,21.986 25.778,31.207 V 0 Z"
             style="fill:#9ea2e3;fill-opacity:1;fill-rule:nonzero;stroke:none"
             id="path3366" /></g><g
           id="g3368"
           transform="translate(300.1396,131.2422)"><path
             d="M 0,0 -44.068,23.439 -88.185,0 c 6.252,-16.399 17.582,-30.3 32.699,-40.825 -4.024,-5.52 -7.735,-11.685 -11.099,-18.393 -2.722,-5.426 1.215,-11.819 7.285,-11.795 l 30.467,0.122 c 6.044,0.025 9.931,6.402 7.217,11.802 -3.348,6.659 -7.037,12.78 -11.036,18.266 C -17.55,-30.3 -6.252,-16.396 0,0"
             style="fill:#efedff;fill-opacity:1;fill-rule:nonzero;stroke:none"
             id="path3370" /></g><g
           id="g3372"
           transform="translate(102.8545,212.334)"><path
             d="m 0,0 19.951,-103.692 c 27.077,-2.368 54.641,9.296 69.753,29.661 l 63.442,0.584 V 0 Z"
             style="fill:#d4d4ff;fill-opacity:1;fill-rule:nonzero;stroke:none"
             id="path3374" /></g><g
           id="g3376"
           transform="translate(256,212.334)"><path
             d="m 0,0 v -73.447 l 62.782,-0.065 c 15.121,-20.287 43.134,-32.543 70.155,-30.18 L 152.888,0 Z"
             style="fill:#efedff;fill-opacity:1;fill-rule:nonzero;stroke:none"
             id="path3378" /></g><g
           id="g3380"
           transform="translate(311,429.1172)"><path
             d="m 0,0 v -55.202 h -163.594 v -118.673 l 123.978,-123.979 28.756,-0.021 c 66.03,19.205 112.775,80.38 112.775,150.811 C 101.915,-79.566 59.392,-22.299 0,0"
             style="fill:#ffddcf;fill-opacity:1;fill-rule:nonzero;stroke:none"
             id="path3382" /></g><g
           id="g3384"
           transform="translate(212.1797,256.7578)"><path
             d="m 0,0 c 2.548,56.948 43.117,105.044 98.82,117.157 v 55.202 c -17.174,6.448 -35.753,9.981 -55.129,9.981 -86.73,0 -157.041,-70.311 -157.041,-157.045 0,-71.483 47.783,-131.805 113.125,-150.811 13.944,-4.056 28.664,-6.23 43.916,-6.23 15.421,0 30.306,2.169 44.269,6.23 C 33.598,-108.455 -2.547,-56.925 0,0"
             style="fill:#ffcbbe;fill-opacity:1;fill-rule:nonzero;stroke:none"
             id="path3386" /></g><g
           id="g3388"
           transform="translate(200.29,227.9531)"><path
             d="m 0,0 c -0.015,-14.33 -14.615,-25.931 -32.609,-25.912 -17.995,0.019 -32.57,11.652 -32.555,25.981 0.016,14.33 14.616,25.932 32.61,25.912 C -14.56,25.962 0.016,14.33 0,0"
             style="fill:#ff8e9e;fill-opacity:1;fill-rule:nonzero;stroke:none"
             id="path3390" /></g><g
           id="g3392"
           transform="translate(311.7314,227.834)"><path
             d="M 0,0 C -0.016,-14.33 14.56,-25.962 32.554,-25.981 50.548,-26.001 65.148,-14.399 65.163,-0.07 65.179,14.26 50.604,25.893 32.609,25.911 14.615,25.931 0.015,14.33 0,0"
             style="fill:#ff8e9e;fill-opacity:1;fill-rule:nonzero;stroke:none"
             id="path3394" /></g><g
           id="g3396"
           transform="translate(200.7422,502.7832)"><path
             d="m 0,0 c -28.533,5.146 -57.916,-1.207 -80.022,-19.967 -22.106,-18.76 -34.204,-46.752 -32.718,-75.707 -16.142,-18.586 -22.222,-46.121 -10.46,-73.699 -27.848,-7.166 -46.984,-33.65 -46.984,-62.941 0,-27.697 16.489,-50.694 40.667,-62.197 -25.116,-39.01 1.471,-95.246 51.58,-99.631 l -0.048,32.744 c 23.534,-4.022 47.197,13.276 49.423,38.72 2.587,29.571 -19.302,55.643 -48.869,58.241 28.251,14.627 36.25,57.318 11.96,83.428 29.979,-8.467 65.471,15.559 65.471,52.141 32.059,4.589 55.129,32.796 55.129,65.182 C 55.129,-31.3 31.872,-5.748 0,0"
             style="fill:#d4d4ff;fill-opacity:1;fill-rule:nonzero;stroke:none"
             id="path3398" /></g><g
           id="g3400"
           transform="translate(481.1836,270.4687)"><path
             d="m 0,0 c 0,29.291 -19.135,55.775 -46.983,62.941 11.761,27.579 5.681,55.114 -10.46,73.7 1.485,28.955 -10.613,56.947 -32.718,75.707 -22.107,18.759 -51.489,25.112 -80.023,19.966 -31.872,-5.748 -55.128,-31.299 -55.128,-63.685 0,-32.387 23.069,-60.594 55.128,-65.183 0,-36.581 35.493,-60.607 65.471,-52.14 -24.29,-26.111 -16.291,-68.801 11.96,-83.429 -29.567,-2.598 -51.456,-28.67 -48.869,-58.24 2.226,-25.444 25.89,-42.742 49.424,-38.721 l -0.049,-32.743 c 50.11,4.385 76.696,60.621 51.58,99.631 C -16.489,-50.693 0,-27.696 0,0"
             style="fill:#efedff;fill-opacity:1;fill-rule:nonzero;stroke:none"
             id="path3402" /></g><g
           id="g3404"
           transform="translate(437.1582,215.0439)"><path
             d="m 0,0 c -4.079,-1.94 -5.527,-7.03 -3.084,-10.829 10.377,-16.129 11.224,-36.666 2.265,-54.937 -19.755,-40.29 -73.097,-43.868 -103.082,-12.436 5.273,2.828 10.418,5.95 15.408,9.375 10.462,-9.363 24.177,-13.902 38.048,-12.679 22.611,1.981 40.107,22.264 38.07,45.398 -1.695,19.403 -18.498,33.525 -37.922,31.84 -4.126,-0.361 -7.179,-3.998 -6.818,-8.125 0.361,-4.127 3.995,-7.182 8.125,-6.818 11.115,0.972 20.731,-7.44 21.673,-18.208 1.307,-14.904 -9.959,-27.876 -24.441,-29.144 -19.81,-1.731 -38.607,13.557 -38.607,36.372 0,23.077 17.521,42.82 40.239,45.801 31.438,-14.419 69.019,6.761 69.019,39.815 0,35.489 -39.25,52.167 -61.774,29.63 -2.928,-2.931 -2.926,-7.679 0.004,-10.608 2.93,-2.926 7.678,-2.925 10.607,0.004 13.245,13.258 36.163,2.816 36.163,-19.026 0,-17.427 -16.328,-29.426 -32.97,-29.426 -33.629,0 -52.572,46.326 -26.218,74.618 19.995,7.22 33.292,26.063 33.292,47.502 0,23.108 -18.788,41.906 -41.881,41.906 -19.302,0 -35.005,-15.712 -35.005,-35.024 0,-4.143 3.358,-7.5 7.5,-7.5 4.143,0 7.5,3.357 7.5,7.5 0,11.042 8.975,20.024 20.005,20.024 14.822,0 26.881,-12.07 26.881,-26.906 0,-19.89 -16.038,-35.507 -35.476,-35.507 -25.486,0 -46.22,20.752 -46.22,46.259 0,3.732 -2.743,6.896 -6.436,7.424 -27.737,3.974 -48.652,28.804 -48.652,57.759 0,30.431 23.567,57.982 66.724,57.899 45.998,-0.088 79.113,-32.56 85.174,-72.455 -30.992,21.297 -74.195,16.571 -96.962,-15.379 -2.404,-3.373 -1.618,-8.057 1.755,-10.461 3.374,-2.402 8.056,-1.615 10.461,1.756 22.92,32.166 70.78,27.878 92.184,-4.516 11.537,-17.457 13.163,-39.177 4.463,-59.591 -1.799,-4.218 0.583,-9.059 5.029,-10.203 C 18.983,104.938 36.36,81.521 36.36,55.425 36.36,31.56 22.768,10.84 0,0 m -181.287,-82.532 c -29.961,0 -58.565,8.729 -83.189,25.303 16.974,28.207 3.588,70.642 -32.183,84.237 18.624,19.661 21.568,48.284 9.724,70.689 30.206,1.546 54.701,25.093 57.742,54.906 14.808,3.487 28.176,11.729 38.127,23.623 3.892,4.65 7.157,9.755 9.779,15.168 2.622,-5.413 5.888,-10.518 9.779,-15.168 9.951,-11.894 23.319,-20.136 38.127,-23.623 3.041,-29.813 27.536,-53.361 57.741,-54.906 -11.85,-22.415 -8.896,-51.032 9.725,-70.688 -35.63,-13.541 -49.221,-55.903 -32.19,-84.225 -24.642,-16.582 -53.244,-25.316 -83.182,-25.316 m 63.924,-37.697 -12.18,-12.181 v 43.166 c 3.58,1.186 7.115,2.506 10.606,3.941 4.483,-4.482 8.481,-9.534 8.481,-18.25 0,-6.3 -2.453,-12.221 -6.907,-16.676 m -48.543,-26.963 -30.466,-0.123 c -0.473,-0.011 -0.772,0.492 -0.552,0.932 2.573,5.131 5.359,9.906 8.301,14.256 l 15.023,0.002 c 2.92,-4.317 5.685,-9.052 8.24,-14.135 0.215,-0.427 -0.06,-0.932 -0.546,-0.932 m -6.209,30.067 -17.995,-0.002 c -8.846,6.466 -15.991,13.942 -21.353,22.345 9.858,-1.821 19.945,-2.75 30.176,-2.75 10.355,0 20.564,0.955 30.54,2.824 -5.363,-8.439 -12.514,-15.938 -21.368,-22.417 m 27.572,-32.014 c -6.079,-16.7 -19.6,-29.433 -36.604,-34.47 -16.983,5.03 -30.491,17.737 -36.581,34.407 v 37.65 c 4.36,-5.326 9.359,-10.281 14.957,-14.775 -2.669,-4.162 -5.201,-8.624 -7.561,-13.33 -5.213,-10.394 2.315,-22.658 13.957,-22.658 h 0.062 l 30.468,0.123 c 11.61,0.047 19.105,12.293 13.887,22.67 -2.339,4.654 -4.847,9.069 -7.49,13.19 5.617,4.491 10.583,9.388 14.905,14.659 z m 0,-50.905 h -73.185 v 22.328 c 9.132,-10.055 21.102,-17.412 34.699,-20.935 1.235,-0.321 2.529,-0.321 3.763,0 13.61,3.526 25.588,10.892 34.723,20.961 z m -88.185,67.593 -12.223,12.222 c -9.195,9.196 -9.195,24.157 0,33.352 l 1.489,1.489 c 3.532,-1.447 7.111,-2.771 10.734,-3.964 z m 0,-67.593 H -274.5 c 1.234,14.586 5.823,28.686 13.48,41.179 2.165,3.531 1.057,8.148 -2.475,10.313 -3.53,2.166 -8.148,1.055 -10.314,-2.475 -9.104,-14.854 -14.478,-31.657 -15.744,-49.017 h -14.991 c 1.972,31.825 16.418,61.93 39.906,83.536 1.894,-5.327 4.964,-10.211 9.081,-14.328 l 22.829,-22.829 z M 51.36,55.425 c 0,30.453 -18.012,57.162 -44.699,67.652 8.389,26.211 2.855,52.264 -12.605,71.593 1.056,50.555 -37.166,102.316 -102.744,102.286 -34.948,-0.016 -60.512,-16.886 -72.599,-40.977 -12.171,24.257 -37.131,40.977 -74.1,40.977 -23.107,0 -44.531,-7.043 -61.957,-20.364 -3.29,-2.516 -3.919,-7.223 -1.403,-10.513 2.517,-3.292 7.223,-3.92 10.514,-1.403 14.786,11.303 33.061,17.279 52.847,17.28 42.817,0 66.599,-27.246 66.599,-57.902 0,-28.955 -20.916,-53.785 -48.652,-57.759 -3.693,-0.528 -6.436,-3.692 -6.436,-7.424 0,-25.507 -20.734,-46.259 -46.22,-46.259 -19.468,0 -35.476,15.65 -35.476,35.507 0,14.836 12.058,26.906 26.881,26.906 11.03,0 20.004,-8.983 20.004,-20.024 0,-4.143 3.358,-7.5 7.5,-7.5 4.142,0 7.5,3.357 7.5,7.5 0,19.312 -15.703,35.024 -35.004,35.024 -23.094,0 -41.881,-18.798 -41.881,-41.906 0,-21.44 13.298,-40.284 33.293,-47.503 26.28,-28.215 7.531,-74.617 -26.219,-74.617 -16.557,0 -32.969,11.908 -32.969,29.426 0,21.826 22.901,32.297 36.161,19.026 2.929,-2.93 7.677,-2.932 10.607,-0.003 2.93,2.928 2.931,7.677 0.004,10.607 -22.581,22.593 -61.772,5.772 -61.772,-29.63 0,-33.095 37.597,-54.224 69.018,-39.815 22.718,-2.981 40.24,-22.724 40.24,-45.802 0,-22.778 -18.778,-38.116 -38.612,-36.371 -14.451,1.266 -25.742,14.208 -24.436,29.149 0.94,10.744 10.541,19.179 21.671,18.203 4.126,-0.356 7.764,2.692 8.126,6.818 0.36,4.126 -2.692,7.764 -6.818,8.125 -19.403,1.685 -36.224,-12.419 -37.923,-31.84 -3.575,-41.008 45.324,-60.262 76.107,-32.73 4.991,-3.425 10.137,-6.549 15.413,-9.377 -29.924,-31.371 -83.279,-27.925 -103.075,12.449 -8.959,18.271 -8.112,38.808 2.265,54.937 2.439,3.792 1.003,8.883 -3.084,10.829 -22.768,10.84 -36.361,31.56 -36.361,55.425 0,26.096 17.378,49.513 41.32,55.679 4.441,1.143 6.829,5.979 5.029,10.203 -18.796,44.099 12.765,86.21 53.896,86.21 16.907,0 32.889,-8.263 42.751,-22.103 2.404,-3.374 7.087,-4.161 10.46,-1.756 3.374,2.404 4.16,7.088 1.756,10.461 -22.456,31.513 -65.526,37.011 -97.002,15.352 1.864,12.561 6.505,24.552 13.693,35.214 2.316,3.433 1.408,8.095 -2.026,10.411 -3.434,2.315 -8.096,1.407 -10.411,-2.027 -11.623,-17.238 -17.611,-37.481 -17.159,-58.396 -15.964,-19.961 -20.752,-46.145 -12.608,-71.596 -26.685,-10.49 -44.699,-37.199 -44.699,-67.652 0,-26.774 14.32,-51.114 37.861,-65.194 -9.381,-19.283 -9.186,-42.13 0.85,-62.6 18.088,-36.888 60.08,-50.43 96.888,-36.484 -26.215,-25.894 -41.441,-61.578 -41.441,-98.691 0,-4.143 3.358,-7.5 7.5,-7.5 h 262.258 c 4.143,0 7.5,3.357 7.5,7.5 0,12.91 -1.798,25.732 -5.346,38.112 -1.141,3.982 -5.296,6.28 -9.277,5.144 -3.981,-1.142 -6.284,-5.294 -5.143,-9.276 2.474,-8.634 3.995,-17.512 4.539,-26.48 h -13.943 c -1.266,17.361 -6.64,34.164 -15.745,49.018 -2.165,3.532 -6.782,4.637 -10.314,2.474 -3.531,-2.165 -4.639,-6.782 -2.475,-10.314 7.659,-12.492 12.246,-26.591 13.481,-41.178 h -42.801 v 46.422 l 22.787,22.786 c 4.128,4.129 7.203,9.028 9.096,14.374 9.798,-8.958 18.029,-19.359 24.546,-31.049 2.017,-3.62 6.588,-4.914 10.203,-2.898 3.617,2.016 4.915,6.585 2.898,10.203 -6.434,11.543 -14.364,21.961 -23.666,31.143 36.562,-13.55 78.27,-0.136 96.327,36.694 10.038,20.47 10.233,43.317 0.851,62.6 23.542,14.08 37.861,38.42 37.861,65.194"
             style="fill:#000000;fill-opacity:1;fill-rule:nonzero;stroke:none"
             id="path3406" /></g><g
           id="g3408"
           transform="translate(186.7681,245.6973)"><path
             d="m 0,0 h 0.007 c 4.139,0 7.496,3.354 7.5,7.493 L 7.52,20.324 c 0.003,4.142 -3.351,7.503 -7.493,7.507 H 0.02 c -4.139,0 -7.497,-3.353 -7.5,-7.493 L -7.493,7.507 C -7.497,3.365 -4.142,0.004 0,0"
             style="fill:#000000;fill-opacity:1;fill-rule:nonzero;stroke:none"
             id="path3410" /></g><g
           id="g3412"
           transform="translate(317.8218,266.0303)"><path
             d="m 0,0 c -0.001,-0.054 -0.008,-0.106 -0.008,-0.16 l -0.013,-12.831 c -0.003,-4.142 3.351,-7.503 7.493,-7.507 h 0.007 c 4.14,0 7.496,3.353 7.5,7.493 l 0.013,12.831 c 0,0.055 -0.007,0.109 -0.008,0.163 3.622,0.528 6.408,3.636 6.412,7.405 0.004,4.142 -3.351,7.503 -7.492,7.507 L 1.082,14.914 H 1.075 c -4.139,0 -7.496,-3.353 -7.5,-7.492 C -6.429,3.643 -3.635,0.522 0,0"
             style="fill:#000000;fill-opacity:1;fill-rule:nonzero;stroke:none"
             id="path3414" /></g><g
           id="g3416"
           transform="translate(241.6997,246.5967)"><path
             d="m 0,0 c 8.592,-4.378 19.302,-4.773 28.662,-0.031 3.695,1.872 5.172,6.385 3.3,10.08 C 30.09,13.744 25.575,15.22 21.882,13.35 17.171,10.963 11.525,10.963 6.809,13.365 3.119,15.245 -1.399,13.779 -3.278,10.087 -5.159,6.396 -3.691,1.88 0,0"
             style="fill:#000000;fill-opacity:1;fill-rule:nonzero;stroke:none"
             id="path3418" /></g><g
           id="g3420"
           transform="translate(204.7622,299.6084)"><path
             d="M 0,0 C -0.724,4.077 -4.614,6.79 -8.695,6.073 L -29.833,2.32 c -4.078,-0.724 -6.797,-4.617 -6.073,-8.696 0.645,-3.635 3.808,-6.189 7.376,-6.189 0.435,0 0.876,0.038 1.32,0.116 l 21.137,3.753 C -1.995,-7.972 0.724,-4.079 0,0"
             style="fill:#000000;fill-opacity:1;fill-rule:nonzero;stroke:none"
             id="path3422" /></g><g
           id="g3424"
           transform="translate(318.8125,33.3525)"><path
             d="m 0,0 c 0,-4.486 3.637,-8.123 8.123,-8.123 4.486,0 8.123,3.637 8.123,8.123 0,4.486 -3.637,8.123 -8.123,8.123 C 3.637,8.123 0,4.486 0,0"
             style="fill:#000000;fill-opacity:1;fill-rule:nonzero;stroke:none"
             id="path3426" /></g></g></g></g></svg>
