<?xml version="1.0" encoding="UTF-8"?>
<svg xmlns="http://www.w3.org/2000/svg" xmlns:xlink="http://www.w3.org/1999/xlink" version="1.1" id="Capa_1" x="0px" y="0px" viewBox="0 0 512.032 512.032" style="enable-background:new 0 0 512.032 512.032;" xml:space="preserve" width="512" height="512">
<g>
	<g>
		<path style="fill:#7A8FA5;" d="M461.267,205.523l-7.11,7.91c-23.77,26.45-58.98,41.75-96.1,41.75h-141.98&#10;&#9;&#9;&#9;c-8.78-42.41-22.96-90.84-43.54-105.32c-5.66-3.98-9.65-7.8-12.32-11.42l6.36-1.04l89.44-14.64l178.48,33.11L461.267,205.523z"/>
		<path style="fill:#5B778F;" d="M233.798,255.183h-80.87c-36.52,0-71.22-14.8-94.99-40.52l-16.09-17.41l62.46-49.66l62.27-10.19&#10;&#9;&#9;&#9;c2.63,9.23,9.35,19.38,23.03,29.67C208.727,181.443,223.267,217.473,233.798,255.183z"/>
		<path style="fill:#FF9A5C;" d="M399.077,128.063h-228.88c-57.12-59.94,31.11-110.85,33.21-112.05c0.03-0.01,0.04-0.02,0.04-0.02&#10;&#9;&#9;&#9;C296.666-15.063,399.077,42.74,399.077,128.063z"/>
		<path style="fill:#FF7E27;" d="M170.197,128.063h-57.24c0-50.9,37.49-94.43,90.49-112.07&#10;&#9;&#9;&#9;C182.137,37.613,151.787,79.203,170.197,128.063z"/>
		<path style="fill:#FF7E27;" d="M363.137,263.253c1.43-1.35,2.82-2.74,4.18-4.15c44.22-11.34,72.76-29.26,72.76-49.44&#10;&#9;&#9;&#9;c0-13.98-13.69-31.35-36.82-41.72c-33.57-15.07-87.03-24.82-147.24-24.82c-30.05,0-58.42,2.43-83.48,6.74&#10;&#9;&#9;&#9;c-38.91-27.37,1.28-47.04,1.28-47.04c67.982-8.348,146.652-6.199,212.58,8.03C553.711,147.003,540.673,233.564,363.137,263.253z"/>
		<path style="fill:#FD5A00;" d="M71.957,209.663c0,20.18,28.54,38.1,72.76,49.44c4.007,4.067,3.934,3.904,4.18,4.15&#10;&#9;&#9;&#9;c-177.851-29.741-190.321-116.304-23.26-152.4c15.07-3.25,31.2-5.96,48.18-8.03c-6.08,8.33-15.31,26.41-1.28,47.04&#10;&#9;&#9;&#9;c-25.14,4.32-46.95,10.53-63.76,18.08C85.647,178.313,71.957,195.683,71.957,209.663z"/>
		<path style="fill:#ACD980;" d="M391.547,489.532c0,4.14-1.68,7.89-4.39,10.61c-2.72,2.71-6.47,4.39-10.61,4.39h-30.18&#10;&#9;&#9;&#9;l-87.49-14.45l-14.01,2.17l-3.91,0.61c-78.35-73.05-4.54-123.53-4.54-123.53h71.35&#10;&#9;&#9;&#9;C356.677,387.363,391.547,434.373,391.547,489.532z"/>
		<path style="fill:#7FCB8F;" d="M244.867,492.253l-79.2,12.28h-30.18c-8.28,0-15-6.72-15-15c0-35.36,14.33-67.37,37.51-90.55&#10;&#9;&#9;&#9;c12.98-12.98,28.72-23.19,46.28-29.65h32.14C224.967,399.943,215.137,449.053,244.867,492.253z"/>
		<path style="fill:#FFCBBE;" d="M226.548,407.753c0,0-19.79-32.7,12.86-45.96c3.02-0.21,6.07-0.32,9.14-0.32&#10;&#9;&#9;&#9;c18.91,0,35.453-0.896,59.22,7.86C316.816,402.805,264.638,426.143,226.548,407.753z"/>
		<path style="fill:#F9B9AC;" d="M239.407,361.793c-5.05,12-10.42,28.02-12.86,45.96c-19.691-9.508-25.839-25.421-22.271-38.42&#10;&#9;&#9;&#9;C215.357,365.243,227.137,362.653,239.407,361.793z"/>
		<path style="fill:#FFCF6B;" d="M346.367,469.303v35.23h-91.79c-54.18-13.41-28.22-60.23-28.22-60.23h95.01&#10;&#9;&#9;&#9;C335.177,444.303,346.367,455.493,346.367,469.303z"/>
		<path style="fill:#FFB451;" d="M254.577,504.532h-88.91v-35.23c0-13.81,11.19-25,25-25h35.69&#10;&#9;&#9;&#9;C229.147,464.553,237.347,485.403,254.577,504.532z"/>
		<path style="fill:#FCEC78;" d="M316.253,474.416L316.253,474.416c-8.317,0-15.059-6.742-15.059-15.059v-75.294&#10;&#9;&#9;&#9;c0-8.317,6.742-15.059,15.059-15.059s15.059,6.742,15.059,15.059v75.294C331.311,467.674,324.569,474.416,316.253,474.416z"/>
		<path style="fill:#FFCF6B;" d="M195.782,474.416c8.317,0,15.059-6.742,15.059-15.059v-75.294c0-8.317-6.742-15.059-15.059-15.059&#10;&#9;&#9;&#9;l0,0c-8.317,0-15.059,6.742-15.059,15.059v75.294C180.723,467.674,187.465,474.416,195.782,474.416z"/>
		
			<ellipse transform="matrix(0.2298 -0.9732 0.9732 0.2298 -145.2582 275.8781)" style="fill:#FFDDCF;" cx="101.664" cy="229.71" rx="26.353" ry="26.353"/>
		
			<ellipse transform="matrix(0.9732 -0.2298 0.2298 0.9732 -41.7986 100.4285)" style="fill:#FFCBBE;" cx="410.37" cy="229.71" rx="26.353" ry="26.353"/>
		<path style="fill:#FFDDCF;" d="M397.147,249.503c0,0,0,0,0,0.01c-0.4,2.41-0.86,4.8-1.38,7.17&#10;&#9;&#9;&#9;c-16.263,74.255-88.818,124.009-165.59,109.99c0,0-170.37-81.72-51.5-217.82c23.51-3.68,49.71-5.73,77.34-5.73&#10;&#9;&#9;&#9;c49.32,0,94.11,6.54,127.15,17.19C397.712,188.43,402.059,219.842,397.147,249.503z"/>
		<path style="fill:#FFCBBE;" d="M230.177,366.673c-94.421-17.218-145.257-121.403-101.31-206.36c14.53-4.69,31.34-8.57,49.81-11.46&#10;&#9;&#9;&#9;C155.177,204.113,137.837,295.423,230.177,366.673z"/>
		<ellipse style="fill:#FD9FAA;" cx="176.461" cy="250.332" rx="29.355" ry="23.377"/>
		<ellipse style="fill:#FD9FAA;" cx="335.574" cy="250.332" rx="29.355" ry="23.377"/>
	</g>
	<g>
		<path style="fill:none;stroke:#000000;stroke-width:15;stroke-linecap:round;stroke-linejoin:round;stroke-miterlimit:10;" d="&#10;&#9;&#9;&#9;M350.574,37.658c25.68,19.061,43.174,45.759,47.473,75.874"/>
		<path style="fill:none;stroke:#000000;stroke-width:15;stroke-linecap:round;stroke-linejoin:round;stroke-miterlimit:10;" d="&#10;&#9;&#9;&#9;M113.987,113.532c11.988-83.971,121.132-131.618,209.522-91.717"/>
		<path style="fill:none;stroke:#000000;stroke-width:15;stroke-linecap:round;stroke-linejoin:round;stroke-miterlimit:10;" d="&#10;&#9;&#9;&#9;M76.187,222.952c-2.77-4.28-4.23-8.73-4.23-13.29c0-13.98,13.69-31.35,36.82-41.72c33.57-15.07,87.03-24.82,147.24-24.82&#10;&#9;&#9;&#9;s113.67,9.75,147.24,24.82c23.228,10.414,46.421,33.639,32.59,55.01"/>
		<path style="fill:none;stroke:#000000;stroke-width:15;stroke-linecap:round;stroke-linejoin:round;stroke-miterlimit:10;" d="&#10;&#9;&#9;&#9;M81.517,246.682h-0.01C-30.92,207.902-11.28,144.1,113.987,113.532c3.8-0.93,7.69-1.82,11.65-2.68&#10;&#9;&#9;&#9;c79.796-17.223,180.964-17.223,260.76,0c3.96,0.86,7.85,1.75,11.65,2.68c125.469,30.616,144.741,94.427,32.48,133.15h-0.01"/>
		<path style="fill:none;stroke:#000000;stroke-width:15;stroke-linecap:round;stroke-linejoin:round;stroke-miterlimit:10;" d="&#10;&#9;&#9;&#9;M180.727,380.892c-8.26,5.15-15.88,11.23-22.73,18.09c-23.18,23.18-37.51,55.19-37.51,90.55c0,8.28,6.72,15,15,15h75.35"/>
		<path style="fill:none;stroke:#000000;stroke-width:15;stroke-linecap:round;stroke-linejoin:round;stroke-miterlimit:10;" d="&#10;&#9;&#9;&#9;M331.307,380.892c36.17,22.63,60.24,62.82,60.24,108.64c0,4.14-1.68,7.89-4.39,10.61c-2.72,2.71-6.47,4.39-10.61,4.39h-135.69"/>
		<path style="fill:none;stroke:#000000;stroke-width:15;stroke-linecap:round;stroke-linejoin:round;stroke-miterlimit:10;" d="&#10;&#9;&#9;&#9;M210.837,395.932c20.494,24.317,69.866,24.317,90.36,0"/>
		
			<line style="fill:none;stroke:#000000;stroke-width:15;stroke-linecap:round;stroke-linejoin:round;stroke-miterlimit:10;" x1="301.197" y1="444.302" x2="210.837" y2="444.302"/>
		<path style="fill:none;stroke:#000000;stroke-width:15;stroke-linecap:round;stroke-linejoin:round;stroke-miterlimit:10;" d="&#10;&#9;&#9;&#9;M346.367,504.532v-35.23c0-10.28-6.2-19.1-15.06-22.94"/>
		<path style="fill:none;stroke:#000000;stroke-width:15;stroke-linecap:round;stroke-linejoin:round;stroke-miterlimit:10;" d="&#10;&#9;&#9;&#9;M180.727,446.362c-8.86,3.84-15.06,12.66-15.06,22.94v35.23"/>
		<path style="fill:none;stroke:#000000;stroke-width:15;stroke-linecap:round;stroke-linejoin:round;stroke-miterlimit:10;" d="&#10;&#9;&#9;&#9;M331.307,384.061v75.293c0,8.316-6.74,15.059-15.05,15.059c-8.32,0-15.06-6.743-15.06-15.059c0-80.951-0.821-78.073,2.13-83.02&#10;&#9;&#9;&#9;C311.211,363.179,331.307,368.925,331.307,384.061z"/>
		<path style="fill:none;stroke:#000000;stroke-width:15;stroke-linecap:round;stroke-linejoin:round;stroke-miterlimit:10;" d="&#10;&#9;&#9;&#9;M210.837,384.061v75.293c0,8.316-6.74,15.059-15.06,15.059c-8.31,0-15.05-6.743-15.05-15.059v-75.293&#10;&#9;&#9;&#9;c0-8.21,6.648-15.059,15.05-15.059C204.075,369.002,210.837,375.728,210.837,384.061z"/>
		<path style="fill:none;stroke:#000000;stroke-width:15;stroke-linecap:round;stroke-linejoin:round;stroke-miterlimit:10;" d="&#10;&#9;&#9;&#9;M114.257,206.552c-3.74-2.04-8.03-3.2-12.59-3.2c-12.22,0-22.5,8.32-25.48,19.6c-0.58,2.16-0.88,4.42-0.88,6.76&#10;&#9;&#9;&#9;c0,6.46,2.33,12.39,6.2,16.97h0.01c8.419,10.026,22.895,12.257,33.85,5.53"/>
		<path style="fill:none;stroke:#000000;stroke-width:15;stroke-linecap:round;stroke-linejoin:round;stroke-miterlimit:10;" d="&#10;&#9;&#9;&#9;M397.777,206.552c3.74-2.04,8.03-3.2,12.59-3.2c14.554,0,26.36,11.806,26.36,26.36c0,6.46-2.33,12.39-6.2,16.97h-0.01&#10;&#9;&#9;&#9;c-4.82,5.74-12.06,9.38-20.15,9.38c-2.64,0-5.18-0.39-7.58-1.11c-0.01,0-0.01,0-0.01,0c-2.17-0.65-4.22-1.58-6.11-2.74"/>
		<path style="fill:none;stroke:#000000;stroke-width:15;stroke-linecap:round;stroke-linejoin:round;stroke-miterlimit:10;" d="&#10;&#9;&#9;&#9;M397.147,249.502c0,0,0,0,0,0.01c-0.4,2.41-0.86,4.8-1.38,7.17c-11.55,52.74-52.18,94.58-104.24,107.87&#10;&#9;&#9;&#9;c-22.826,5.852-47.549,6.017-71.02,0c-89.557-22.862-133.468-123.379-91.64-204.24c33.04-10.65,77.83-17.19,127.15-17.19&#10;&#9;&#9;&#9;s94.11,6.54,127.15,17.19C397.712,188.43,402.059,219.841,397.147,249.502z"/>
		
			<line style="fill:none;stroke:#000000;stroke-width:15;stroke-linecap:round;stroke-linejoin:round;stroke-miterlimit:10;" x1="193.568" y1="215.828" x2="193.568" y2="227.828"/>
		
			<line style="fill:none;stroke:#000000;stroke-width:15;stroke-linecap:round;stroke-linejoin:round;stroke-miterlimit:10;" x1="318.466" y1="215.828" x2="318.466" y2="227.828"/>
		<path style="fill:none;stroke:#000000;stroke-width:15;stroke-linecap:round;stroke-linejoin:round;stroke-miterlimit:10;" d="&#10;&#9;&#9;&#9;M239.553,227.471c8.715,10.001,24.213,10.001,32.929,0"/>
	</g>
</g>















</svg>
