<svg height="512pt" viewBox="-24 0 512 512.0005" width="512pt" xmlns="http://www.w3.org/2000/svg"><path d="m185.773438 504.488281h91.773437l20.46875-45.886719-20.46875-54.140624h-91.773437l-19.808594 50.011718zm0 0" fill="#fd5f7e"/><path d="m146.945312 504.488281h-85.09375s-3.351562-31.75 30.902344-66.550781l17.75-16.3125 44.894532 36.976562zm0 0" fill="#69a2de"/><path d="m122.753906 437.9375 3.570313-3.28125-15.820313-13.03125-17.75 16.3125c-34.253906 34.800781-30.902344 66.550781-30.902344 66.550781h30s-3.351562-31.75 30.902344-66.550781zm0 0" fill="#007dcf"/><path d="m316.375 504.488281h85.09375s3.351562-31.75-30.902344-66.550781l-17.746094-16.3125-44.898437 36.976562zm0 0" fill="#69a2de"/><path d="m73.273438 355.84375c-48.605469 66.441406 73.671874 100.777344 73.671874 148.644531h38.828126v-100.027343zm0 0" fill="#e8e8e8"/><path d="m96.972656 366.085938-23.699218-10.242188c-48.605469 66.441406 73.671874 100.773438 73.671874 148.644531h30c0-45.34375-109.726562-78.546875-79.972656-138.402343zm0 0" fill="#c7c5cb"/><path d="m390.046875 355.84375c48.605469 66.441406-73.671875 100.777344-73.671875 148.644531h-38.828125v-100.027343zm0 0" fill="#e8e8e8"/><path d="m455.820312 252.921875c0 21.703125-17.59375 39.296875-39.296874 39.296875-21.699219 0-39.292969-17.59375-39.292969-39.296875 0-21.699219 17.59375-39.292969 39.292969-39.292969 21.703124 0 39.296874 17.59375 39.296874 39.292969zm0 0" fill="#ffbe9c"/><path d="m86.089844 252.921875c0 21.703125-17.59375 39.296875-39.292969 39.296875-21.703125 0-39.296875-17.59375-39.296875-39.296875 0-21.699219 17.59375-39.292969 39.296875-39.292969 21.699219 0 39.292969 17.59375 39.292969 39.292969zm0 0" fill="#ffbe9c"/><path d="m416.523438 244.007812c-.875-4.601562-1.5-9.25-1.65625-13.933593-3.324219-98.324219-84.074219-177.011719-183.207032-177.011719-99.132812 0-179.882812 78.6875-183.207031 177.011719-.15625 4.679687-.78125 9.332031-1.65625 13.933593-13.109375 68.691407.28125 128.238282 146.351563 176.699219 12.417968 4.121094 25.425781 6.222657 38.511718 6.222657 13.082032 0 26.089844-2.101563 38.511719-6.222657 146.070313-48.460937 159.464844-108.003906 146.351563-176.699219zm0 0" fill="#e7886e"/><path d="m223.148438 420.710938c-146.070313-48.464844-159.464844-108.007813-146.355469-176.703126.878906-4.601562 1.5-9.25 1.660156-13.933593 3.152344-93.3125 76.050781-168.929688 168.207031-176.394531-4.949218-.402344-9.949218-.617188-15-.617188-99.132812 0-179.882812 78.6875-183.207031 177.011719-.15625 4.683593-.78125 9.332031-1.65625 13.933593-13.109375 68.695313.28125 128.242188 146.351563 176.703126 12.417968 4.117187 25.425781 6.21875 38.511718 6.21875 5.019532 0 10.027344-.3125 15-.929688-7.980468-.984375-15.859375-2.75-23.511718-5.289062zm0 0" fill="#dc6742"/><path d="m409.359375 26.195312c0-8.820312-10.035156-13.882812-17.128906-8.644531l-18.039063 13.324219c-5.5 4.066406-13.011718 4.066406-18.511718 0l-28.785157-21.261719c-3.792969-2.804687-8.972656-2.804687-12.769531 0l-28.78125 21.261719c-5.503906 4.066406-13.011719 4.066406-18.515625 0l-28.78125-21.261719c-3.796875-2.804687-8.976563-2.804687-12.773437 0l-28.78125 21.261719c-5.503907 4.066406-13.011719 4.066406-18.515626 0l-28.78125-21.261719c-3.792968-2.804687-8.972656-2.804687-12.769531 0l-28.785156 21.261719c-5.5 4.066406-13.011719 4.066406-18.511719 0l-18.035156-13.324219c-7.09375-5.238281-17.132812-.175781-17.132812 8.644531v120.800782l177.699218 22.101562 177.699219-22.101562zm0 0" fill="#f9ed80"/><path d="m83.960938 146.996094v-119.9375l-12.867188-9.507813c-7.09375-5.238281-17.132812-.175781-17.132812 8.644531v120.800782zm0 0" fill="#fab659"/><path d="m99.832031 191.191406c-25.363281 30.375-30.101562 111.75 29.203125 111.75 59.304688 0 46.667969-36.644531 102.625-36.644531 55.957032 0 43.320313 36.644531 102.625 36.644531 59.304688 0 54.566406-81.375 29.207032-111.75l-131.832032-22.097656zm0 0" fill="#ffd3bc"/><path d="m409.359375 146.996094h-355.398437c-12.203126 0-22.097657 9.894531-22.097657 22.097656 0 12.207031 9.890625 22.101562 22.097657 22.101562h355.398437c12.203125 0 22.097656-9.894531 22.097656-22.101562 0-12.203125-9.894531-22.097656-22.097656-22.097656zm0 0" fill="#fab659"/><path d="m61.859375 169.09375c0-12.203125 9.894531-22.097656 22.101563-22.097656h-30c-12.203126 0-22.097657 9.894531-22.097657 22.097656 0 12.207031 9.890625 22.097656 22.097657 22.097656h30c-12.207032 0-22.101563-9.890625-22.101563-22.097656zm0 0" fill="#ec8d00"/><path d="m231.660156 53.0625c-10.757812 0-19.476562 8.722656-19.476562 19.480469v25.238281c0 10.757812 8.71875 19.476562 19.476562 19.476562 10.757813 0 19.476563-8.71875 19.476563-19.476562v-25.238281c0-10.757813-8.71875-19.480469-19.476563-19.480469zm0 0" fill="#69a2de"/><path d="m114.433594 61.097656c-8.066406 0-14.601563 6.539063-14.601563 14.601563v18.921875c0 8.066406 6.535157 14.601562 14.601563 14.601562 8.0625 0 14.601562-6.535156 14.601562-14.601562v-18.921875c0-8.0625-6.539062-14.601563-14.601562-14.601563zm0 0" fill="#fd5f7e"/><path d="m348.886719 61.097656c8.066406 0 14.601562 6.539063 14.601562 14.601563v18.921875c0 8.066406-6.535156 14.601562-14.601562 14.601562-8.0625 0-14.601563-6.535156-14.601563-14.601562v-18.921875c0-8.0625 6.539063-14.601563 14.601563-14.601563zm0 0" fill="#fd5f7e"/><path d="m145.066406 281.796875h-17.90625c-4.140625 0-7.5-3.359375-7.5-7.5s3.359375-7.5 7.5-7.5h17.90625c4.144532 0 7.5 3.359375 7.5 7.5s-3.355468 7.5-7.5 7.5zm0 0" fill="#ff889e"/><path d="m336.160156 281.796875h-17.90625c-4.144531 0-7.5-3.359375-7.5-7.5s3.355469-7.5 7.5-7.5h17.90625c4.144532 0 7.5 3.359375 7.5 7.5s-3.355468 7.5-7.5 7.5zm0 0" fill="#ff889e"/><path d="m258.636719 97.792969v-25.242188c0-14.875-12.101563-26.976562-26.976563-26.976562s-26.976562 12.101562-26.976562 26.976562v25.242188c0 14.875 12.101562 26.976562 26.976562 26.976562s26.976563-12.101562 26.976563-26.976562zm-38.957031 0v-25.242188c0-6.601562 5.375-11.976562 11.980468-11.976562 6.605469 0 11.976563 5.375 11.976563 11.976562v25.242188c0 6.605469-5.371094 11.976562-11.976563 11.976562-6.605468 0-11.980468-5.371093-11.980468-11.976562zm0 0"/><path d="m136.535156 94.632812v-18.921874c0-12.1875-9.917968-22.101563-22.101562-22.101563-12.1875 0-22.101563 9.914063-22.101563 22.101563v18.921874c0 12.1875 9.914063 22.101563 22.101563 22.101563s22.101562-9.914063 22.101562-22.101563zm-29.203125 0v-18.921874c0-3.917969 3.183594-7.101563 7.101563-7.101563 3.917968 0 7.101562 3.1875 7.101562 7.101563v18.921874c0 3.917969-3.1875 7.101563-7.101562 7.101563-3.917969 0-7.101563-3.183594-7.101563-7.101563zm0 0"/><path d="m370.988281 94.632812v-18.921874c0-12.1875-9.914062-22.101563-22.101562-22.101563s-22.101563 9.914063-22.101563 22.101563v18.921874c0 12.1875 9.914063 22.101563 22.101563 22.101563s22.101562-9.914063 22.101562-22.101563zm-29.203125 0v-18.921874c0-3.917969 3.1875-7.101563 7.101563-7.101563 3.917969 0 7.105469 3.1875 7.105469 7.101563v18.921874c0 3.917969-3.1875 7.101563-7.105469 7.101563-3.914063 0-7.101563-3.183594-7.101563-7.101563zm0 0"/><path d="m146.945312 261.726562c4.140626 0 7.5-3.359374 7.5-7.5v-16.472656c0-4.144531-3.359374-7.5-7.5-7.5-4.140624 0-7.5 3.355469-7.5 7.5v16.472656c0 4.140626 3.359376 7.5 7.5 7.5zm0 0"/><path d="m251.746094 292.082031c-3.117188-2.726562-7.855469-2.410156-10.582032.710938-2.296874 2.628906-5.761718 4.136719-9.503906 4.136719-3.742187 0-7.207031-1.507813-9.507812-4.136719-2.722656-3.121094-7.460938-3.4375-10.582032-.710938-3.117187 2.722657-3.433593 7.460938-.710937 10.582031 5.148437 5.886719 12.730469 9.265626 20.800781 9.265626 8.066406 0 15.648438-3.378907 20.796875-9.265626 2.726563-3.121093 2.410157-7.859374-.710937-10.582031zm0 0"/><path d="m316.375 261.726562c4.140625 0 7.5-3.359374 7.5-7.5v-16.472656c0-4.144531-3.359375-7.5-7.5-7.5-4.144531 0-7.5 3.355469-7.5 7.5v16.472656c0 4.140626 3.355469 7.5 7.5 7.5zm0 0"/><path d="m0 252.933594c0 22.011718 15.683594 40.992187 36.679688 45.671875 2.855468 20.664062 11.015624 39.984375 26.996093 58.054687-20.765625 33.164063-3.769531 59.527344 18.550781 81.574219-30.824218 34.71875-27.976562 65.683594-27.832031 67.054687.402344 3.816407 3.621094 6.710938 7.457031 6.710938h339.617188c3.835938 0 7.054688-2.894531 7.457031-6.710938.144531-1.371093 2.988281-32.335937-27.835937-67.054687 22.34375-22.066406 39.347656-48.457031 18.496094-81.664063 9.761718-11.050781 16.914062-22.878906 21.574218-35.625 2.609375-7.152343 4.449219-14.542968 5.546875-22.355468 20.964844-4.707032 36.613281-23.667969 36.613281-45.65625 0-24.601563-19.09375-44.816406-43.238281-46.644532-.476562-3.019531-1.03125-6.023437-1.652343-9.011718 11.894531-3.839844 20.527343-15.015625 20.527343-28.171875 0-13.730469-9.398437-25.300781-22.097656-28.632813 0 0 0-114.203125 0-114.265625 0-14.679687-17.269531-23.40625-29.085937-14.675781l-18.039063 13.324219c-2.871094 2.121093-6.730469 2.121093-9.601563 0l-28.78125-21.261719c-6.484374-4.792969-15.199218-4.792969-21.683593 0l-28.78125 21.261719c-2.871094 2.121093-6.730469 2.121093-9.601563 0l-28.785156-21.261719c-6.484375-4.792969-15.199219-4.792969-21.679688 0l-28.785156 21.261719c-2.871094 2.121093-6.730468 2.121093-9.601562 0l-28.78125-21.261719c-6.488282-4.792969-15.199219-4.789062-21.683594 0l-28.78125 21.261719c-2.871094 2.121093-6.730469 2.121093-9.601562 0 0 0-18.019532-13.3125-18.039063-13.324219-11.839844-8.746094-29.085937.007812-29.085937 14.675781v32.90625c0 4.140625 3.359374 7.5 7.5 7.5 4.140624 0 7.5-3.359375 7.5-7.5 0 0 0-32.867187 0-32.90625 0-2.535156 2.984374-4.230469 5.175781-2.613281l18.035156 13.324219c8.207031 6.058593 19.226563 6.058593 27.425781 0l28.785156-21.261719c1.152344-.851562 2.703126-.851562 3.855469 0l28.785157 21.261719c8.203124 6.058593 19.222656 6.058593 27.425781 0l28.78125-21.261719c1.15625-.851562 2.707031-.851562 3.859375 0l28.78125 21.261719c8.203125 6.058593 19.226562 6.058593 27.425781 0l28.785156-21.261719c1.152344-.851562 2.703125-.851562 3.859375 0l28.78125 21.261719c8.203125 6.058593 19.226563 6.058593 27.425782 0 0 0 18.039062-13.324219 18.039062-13.324219 2.136719-1.578125 5.171875-.007812 5.171875 2.613281v113.300781h-340.398437v-50.472656c0-4.140625-3.359376-7.5-7.5-7.5-4.140626 0-7.5 3.359375-7.5 7.5v51.4375c-12.699219 3.328125-22.097657 14.902344-22.097657 28.632813 0 13.15625 8.628907 24.332031 20.527344 28.171875-.625 2.988281-1.175781 5.992187-1.65625 9.011718-24.144531 1.824219-43.234375 22.042969-43.234375 46.644532zm15 0c0-15.699219 11.4375-28.78125 26.421875-31.339844-.042969.527344-.070313 1.054688-.109375 1.582031-.449219 6.5-.660156 13.023438-1.882812 19.4375-.554688 2.910157-1.054688 5.828125-1.519532 8.75-1.804687 11.433594-2.628906 21.675781-2.480468 31.246094-11.953126-4.628906-20.429688-16.332031-20.429688-29.675781zm59.402344 151.816406c-6.808594-12.628906-6.820313-24.328125.179687-37.078125 17.472657 15.886719 41.785157 30.761719 74.765625 44.691406 9.425782 3.980469 19.171875 7.722657 28.886719 11.164063.015625.003906.027344.011718.039063.015625v73.457031h-24.59375c-.027344-.136719-.0625-.269531-.09375-.40625-3.5625-16.5-16.574219-29.039062-28.535157-40.007812-17.386719-15.945313-39.210937-30.625-50.648437-51.835938zm18.785156 43.722656c5.335938 4.765625 10.773438 9.414063 16.136719 14.148438.015625.011718.027343.023437.042969.035156 10.414062 9.339844 24.003906 20.265625 28.769531 34.34375h-68.605469c1.019531-9.480469 5.484375-27.941406 23.65625-48.527344zm100.085938-19.839844c.441406.136719.886718.253907 1.332031.386719 12 3.582031 24.527343 5.421875 37.054687 5.421875 12.984375 0 25.988282-1.960937 38.390625-5.808594v68.367188h-76.777343zm176.859374 19.839844c18.203126 20.605469 22.660157 39.023438 23.667969 48.527344h-68.617187c.144531-.429688.300781-.859375.46875-1.289062 3.597656-9.246094 10.984375-16.824219 18-23.605469 2.128906-2.058594 26.277344-23.863281 26.480468-23.632813zm18.785157-43.722656c-5.222657 9.6875-13.996094 18.960938-23.734375 27.960938-11.183594 10.335937-23.15625 19.828124-33.960938 30.574218-9.46875 9.414063-18.820312 20.257813-21.582031 33.714844h-24.59375v-73.457031c.054687-.023438.109375-.042969.164063-.0625 15.46875-5.5 31.257812-10.847657 45.707031-18.730469 3.660156-1.746094 5.28125-6.351562 3.535156-10.007812-1.785156-3.734376-6.261719-5.316407-10-3.53125-15.066406 7.179687-30.601563 13.335937-46.34375 18.871093-15.167969 5.332031-30.242187 9.359375-46.449219 9.359375-22.96875 0-44.496094-8.183594-65.574218-16.453125-49.546876-19.484375-82.261719-41.605469-99.59375-67.234375-8.953126-13.242187-14.070313-27.441406-15.585938-44.167968-.003906-.066407 0-.128907-.003906-.191407-1.296875-14.035156.121094-28.25 2.550781-42.085937 1.09375-6.246094 2.28125-12.585938 2.496094-18.972656.359375-10.632813 1.6875-21.238282 3.957031-31.632813h26.160156c-11.832031 22.886719-16.433594 57.527344-4.75 82.503906 8.820313 18.859375 25.769532 29.246094 47.71875 29.246094 32.75 0 46.058594-10.84375 57.796875-20.40625 10.691407-8.714844 19.925781-16.238281 44.828125-16.238281 24.90625 0 34.136719 7.523437 44.832032 16.238281 11.738281 9.5625 25.042968 20.40625 57.792968 20.40625 21.953125 0 38.898438-10.386719 47.722656-29.246094 11.679688-24.976562 7.078126-59.617187-4.753906-82.503906h26.164063c1.144531 5.238281 2.046875 10.535156 2.710937 15.867187.003906.035157 0 .070313.007813.105469.644531 5.265625 1.0625 10.535157 1.234375 15.660157.457031 13.417968 4.234375 26.550781 5.171875 39.960937.527343 7.519531.484375 14.464844-.121094 21.097656-.011719.132813-.007813.265625-.015625.398438-1.964844 20.878906-9.804688 40.167969-27.222656 58.351562-10.40625 10.863281-22.675782 19.785157-35.507813 27.5625-3.472656 2.105469-4.640625 6.824219-2.539062 10.296875 2.140625 3.546875 6.753906 4.683594 10.296875 2.542969 11.074218-6.695313 21.6875-14.238281 31.265625-22.957031 7.042969 12.78125 7.042969 24.507812.21875 37.160156zm-20.5-129.898438c-6.394531 13.671876-17.878907 20.605469-34.132813 20.605469-27.414062 0-37.570312-8.277343-48.320312-17.039062-11.277344-9.191407-24.0625-19.609375-54.304688-19.609375-30.242187 0-43.027344 10.417968-54.304687 19.609375-10.75 8.761719-20.90625 17.039062-48.320313 17.039062-16.253906 0-27.738281-6.933593-34.132812-20.605469-10.777344-23.03125-4.414063-57.949218 8.605468-76.148437h256.304688c13.019531 18.199219 19.378906 53.117187 8.605469 76.148437zm53.480469-53.257812c14.984374 2.5625 26.421874 15.640625 26.421874 31.339844 0 13.34375-8.472656 25.046875-20.425781 29.675781.015625-1.335937.015625-2.683594-.003906-4.046875-.171875-12.054688-1.742187-24.117188-4-35.949219-1.21875-6.398437-1.433594-12.921875-1.882813-19.40625-.039062-.539062-.066406-1.074219-.109374-1.613281zm-382.535157-52.488281c0-8.050781 6.546875-14.597657 14.59375-14.597657h.003907 355.398437c8.050781 0 14.597656 6.546876 14.597656 14.597657s-6.546875 14.601562-14.597656 14.601562h-.007813s0 0-.003906 0h-355.386718c-8.050782 0-14.597657-6.550781-14.597657-14.601562zm0 0"/></svg>