<svg height="512pt" viewBox="-35 0 511 512" width="512pt" xmlns="http://www.w3.org/2000/svg"><path d="m388.988281 494.933594 36.042969 6.765625c5.597656 1.050781 10.535156-3.785157 9.601562-9.40625l-6.011718-36.175781c-.921875-5.527344-3.914063-10.492188-8.371094-13.886719l-60.929688-46.378907-29.148437 28.550782 45.105469 61.878906c3.300781 4.523438 8.207031 7.621094 13.710937 8.652344zm0 0" fill="#d5d4da"/><path d="m332.851562 360.933594-32.621093 4-27.214844 29.273437.832031 4.800781 14.789063 13.1875c10.980469 9.792969 27.289062 11.367188 39.550781 3.234376 6.820312-4.527344 11.753906-11.488282 12.753906-20.800782 1.183594-11.019531-2.457031-22.695312-8.089844-33.695312zm0 0" fill="#ffd3bc"/><path d="m287.519531 449.71875c-.320312-18.898438-1.304687-35.539062-2.746093-50.148438l-87.289063-14.21875-87.273437 14.21875c-1.445313 14.652344-2.429688 31.347657-2.746094 50.3125l-.003906.316407 26.960937 15.707031 27.226563-15.707031v-8.636719c0-5.660156 4.582031-10.253906 10.246093-10.253906h51.1875c5.664063 0 10.253907 4.589844 10.253907 10.253906v8.636719l27.398437 15.707031 26.785156-15.707031zm0 0" fill="#a5b0bc"/><path d="m316.410156 335.660156c-1.445312-1.871094-2.921875-3.71875-4.410156-5.5625-13.753906-16.921875-32.339844-29.703125-54.957031-28.628906l15.972656 92.738281 59.835937-33.273437c-4.652343-9.132813-10.675781-17.8125-16.441406-25.273438zm0 0" fill="#a5b0bc"/><path d="m281.085938 371.128906c-8.984376-54.253906-24.042969-69.660156-24.042969-69.660156h-119.101563s-15.058594 15.40625-24.042968 69.660156c-1.410157 8.492188-2.664063 17.945313-3.6875 28.441406h174.5625c-1.023438-10.496093-2.277344-19.949218-3.6875-28.441406zm0 0" fill="#84a3e3"/><path d="m382.980469 160.496094c0 16.292968-13.207031 29.503906-29.503907 29.503906-16.296874 0-29.507812-13.210938-29.507812-29.503906 0-16.296875 13.210938-29.507813 29.507812-29.507813 16.296876 0 29.503907 13.210938 29.503907 29.507813zm0 0" fill="#d5d4da"/><path d="m71.003906 160.496094c0 16.292968-13.210937 29.503906-29.507812 29.503906s-29.507813-13.210938-29.507813-29.503906c0-16.296875 13.210938-29.507813 29.507813-29.507813s29.507812 13.210938 29.507812 29.507813zm0 0" fill="#d5d4da"/><path d="m44.496094 160.496094c0-84.5 68.496094-152.996094 152.996094-152.996094 84.488281 0 152.984374 68.496094 152.984374 152.996094 0 84.496094-68.496093 152.992187-152.984374 152.992187-84.5 0-152.996094-68.496093-152.996094-152.992187zm0 0" fill="#a5b0bc"/><path d="m107.460938 450.199219c-.066407 4.230469-.109376 8.558593-.109376 13.019531 0 0-11.921874 9.839844-16.902343 26.613281-2.171875 7.3125 3.265625 14.667969 10.894531 14.667969h48.929688c6.28125 0 11.375-5.09375 11.375-11.375v-42.925781zm0 0" fill="#8597a5"/><path d="m287.519531 450.199219c.070313 4.230469.109375 8.558593.109375 13.019531 0 0 11.921875 9.839844 16.902344 26.613281 2.171875 7.3125-3.265625 14.667969-10.894531 14.667969h-48.925781c-6.285157 0-11.378907-5.09375-11.378907-11.375v-42.925781zm0 0" fill="#8597a5"/><path d="m44.496094 160.496094s43.335937 75.84375 152.996094 75.84375c109.65625 0 152.996093-75.84375 152.996093-75.84375l-17.636719-30.988282-135.367187-26.574218-126.996094 24.074218zm0 0" fill="#ffd3bc"/><path d="m197.484375 102.933594-126.996094 24.074218-25.992187 33.488282s4.855468 8.484375 15.40625 19.773437c6.363281-3.988281 50.273437-29.261719 137.582031-29.261719 86.253906 0 130.488281 24.90625 137.582031 29.277344 10.5625-11.296875 15.421875-19.789062 15.421875-19.789062l-17.636719-30.988282zm0 0" fill="#ffbe9c"/><path d="m270.792969 59.054688c-47.09375-18.242188-99.523438-18.242188-146.617188 0-39.277343 15.214843-79.679687 44.664062-79.679687 101.441406 0 0 47.992187-34.488282 152.988281-34.488282 105 0 152.992187 34.488282 152.992187 34.488282 0-56.777344-40.402343-86.226563-79.683593-101.441406zm0 0" fill="#d5d4da"/><path d="m274.015625 201.234375h-17.898437c-4.140626 0-7.5-3.355469-7.5-7.5 0-4.140625 3.359374-7.496094 7.5-7.496094h17.898437c4.140625 0 7.5 3.355469 7.5 7.496094 0 4.144531-3.359375 7.5-7.5 7.5zm0 0" fill="#ff889e"/><path d="m138.855469 201.234375h-17.898438c-4.140625 0-7.5-3.355469-7.5-7.5 0-4.140625 3.359375-7.496094 7.5-7.496094h17.898438c4.140625 0 7.5 3.355469 7.5 7.496094 0 4.144531-3.359375 7.5-7.5 7.5zm0 0" fill="#ff889e"/><path d="m184.886719 387.402344-74.675781 12.167968c-1.378907 13.960938-2.328126 29.804688-2.6875 47.671876.855468-.207032 1.707031-.4375 2.550781-.703126 31.285156-9.761718 56.445312-29.660156 74.8125-59.136718zm0 0" fill="#8597a5"/><path d="m185.652344 386.179688c14.863281-24.316407 21.929687-50.183594 25.242187-67.601563 1.082031-5.699219.976563-11.523437-.230469-17.109375h-72.726562s-15.054688 15.40625-24.039062 69.660156c-1.414063 8.492188-2.667969 17.945313-3.6875 28.441406h66.308593c3.210938-4.222656 6.257813-8.6875 9.132813-13.390624zm0 0" fill="#5c84d9"/><path d="m173.691406 267.75c-28.332031-3.460938-45.75-12.203125-53.609375-17.105469-6.828125-4.261719-14.699219-6.515625-22.761719-6.515625s-15.933593 2.253906-22.761718 6.515625c-.152344.09375-.3125.191407-.472656.289063 27.84375 37.929687 72.746093 62.554687 123.40625 62.554687 4.746093 0 9.441406-.226562 14.082031-.652343.515625-9.828126-2.34375-19.664063-8.199219-27.679688-7.019531-9.617188-17.839844-15.960938-29.683594-17.40625zm0 0" fill="#8597a5"/><path d="m170.664062 292.566406c-32.113281-3.921875-52.847656-13.871094-63.8125-20.710937-5.820312-3.632813-13.242187-3.632813-19.0625 0-10.960937 6.839843-31.699218 16.789062-63.8125 20.710937-10.425781 1.273438-17.632812 11.019532-15.671874 21.34375 5.953124 31.292969 24.847656 90.398438 83.710937 108.765625 3.445313 1.074219 7.164063 1.074219 10.609375 0 58.863281-18.367187 77.757812-77.472656 83.707031-108.765625 1.964844-10.324218-5.238281-20.070312-15.667969-21.34375zm0 0" fill="#3d4851"/><path d="m97.320312 387.070312c-28.851562-11.539062-43.082031-39.464843-50.058593-62.507812 21.492187-4.421875 38.042969-11.121094 50.058593-17.449219 12.015626 6.328125 28.566407 13.027344 50.058594 17.449219-6.976562 23.042969-21.207031 50.96875-50.058594 62.507812zm0 0" fill="#84a3e3"/><path d="m326.75 443.699219 51.933594-50.871094c2.441406-2.394531 2.484375-6.3125.089844-8.757813-8.871094-9.054687-23.40625-9.207031-32.464844-.335937l-27.980469 27.40625c-9.058594 8.871094-9.207031 23.40625-.335937 32.464844 2.390624 2.445312 6.3125 2.484375 8.757812.09375zm0 0" fill="#3d4851"/><path d="m100.488281 88.175781c-4.140625 0-7.5 3.355469-7.5 7.5v18.664063c0 4.144531 3.359375 7.5 7.5 7.5s7.5-3.355469 7.5-7.5v-18.664063c0-4.144531-3.355469-7.5-7.5-7.5zm0 0"/><path d="m148.992188 68.175781c-4.144532 0-7.5 3.355469-7.5 7.5v35.851563c0 4.140625 3.355468 7.5 7.5 7.5 4.140624 0 7.5-3.359375 7.5-7.5v-35.851563c0-4.144531-3.359376-7.5-7.5-7.5zm0 0"/><path d="m294.496094 88.175781c-4.144532 0-7.5 3.355469-7.5 7.5v18.664063c0 4.144531 3.355468 7.5 7.5 7.5 4.140625 0 7.5-3.355469 7.5-7.5v-18.664063c0-4.144531-3.359375-7.5-7.5-7.5zm0 0"/><path d="m245.992188 68.175781c-4.140626 0-7.5 3.355469-7.5 7.5v35.851563c0 4.140625 3.359374 7.5 7.5 7.5 4.144531 0 7.5-3.359375 7.5-7.5v-35.851563c0-4.144531-3.355469-7.5-7.5-7.5zm0 0"/><path d="m197.492188 61.65625c-4.140626 0-7.5 3.359375-7.5 7.5v35.851562c0 4.140626 3.359374 7.5 7.5 7.5 4.140624 0 7.5-3.359374 7.5-7.5v-35.851562c0-4.140625-3.359376-7.5-7.5-7.5zm0 0"/><path d="m265.066406 181.921875c4.144532 0 7.5-3.355469 7.5-7.5v-13.140625c0-4.140625-3.355468-7.5-7.5-7.5-4.140625 0-7.5 3.359375-7.5 7.5v13.140625c0 4.144531 3.359375 7.5 7.5 7.5zm0 0"/><path d="m129.90625 181.921875c4.144531 0 7.5-3.355469 7.5-7.5v-13.140625c0-4.140625-3.355469-7.5-7.5-7.5-4.140625 0-7.5 3.359375-7.5 7.5v13.140625c0 4.144531 3.359375 7.5 7.5 7.5zm0 0"/><path d="m214.511719 182c-3.121094-2.726562-7.859375-2.410156-10.585938.710938-1.542969 1.769531-3.890625 2.78125-6.4375 2.78125s-4.894531-1.015626-6.441406-2.78125c-2.726563-3.121094-7.464844-3.4375-10.582031-.710938-3.121094 2.722656-3.4375 7.460938-.710938 10.582031 4.394532 5.027344 10.855469 7.910157 17.734375 7.910157 6.875 0 13.335938-2.882813 17.734375-7.910157 2.726563-3.117187 2.40625-7.855469-.710937-10.582031zm0 0"/><path d="m94.539062 394.035156c1.78125.710938 3.785157.710938 5.570313 0 32.042969-12.820312 47.296875-43.671875 54.449219-67.296875 1.261718-4.175781-1.40625-8.644531-5.664063-9.519531-17.746093-3.65625-33.921875-9.289062-48.078125-16.742188-2.1875-1.152343-4.800781-1.152343-6.988281 0-14.152344 7.453126-30.328125 13.085938-48.074219 16.742188-4.238281.871094-6.921875 5.378906-5.667968 9.515625 7.152343 23.628906 22.40625 54.480469 54.453124 67.300781zm2.785157-78.5c12.257812 6.09375 25.773437 10.960938 40.320312 14.519532-6.691406 18.253906-18.769531 38.972656-40.320312 48.855468-21.550781-9.882812-33.632813-30.601562-40.320313-48.855468 14.542969-3.558594 28.058594-8.425782 40.320313-14.519532zm0 0"/><path d="m436.019531 454.886719c-1.238281-7.4375-5.222656-14.054688-11.226562-18.621094l-44.867188-34.15625 4.007813-3.921875c5.390625-5.285156 5.480468-13.96875.199218-19.363281-5.777343-5.898438-13.503906-9.144531-21.761718-9.144531-5.777344 0-11.320313 1.613281-16.109375 4.609374-1.523438-5.378906-3.765625-10.976562-6.738281-16.78125-4.234376-8.308593-9.851563-16.957031-17.175782-26.433593-1.589844-2.050781-3.171875-4.027344-4.527344-5.707031-11.0625-13.609376-23.609374-22.972657-37-27.757813 36.082032-22.007813 62.835938-57.859375 72.84375-100.113281 20.316407-.101563 36.816407-16.660156 36.816407-37 0-20.34375-16.5-36.902344-36.816407-37.003906-16.75-70.71875-80.410156-123.492188-156.171874-123.492188-75.765626 0-139.429688 52.773438-156.183594 123.492188-20.320313.101562-36.816406 16.660156-36.816406 37.003906 0 20.324218 16.46875 36.867187 36.761718 37 6.171875 26.324218 18.941406 50.613281 37.492188 70.953125-11.613282 6.351562-29.71875 13.503906-55.675782 16.671875-14.507812 1.773437-24.867187 15.804687-22.128906 30.1875 3.609375 18.996094 11.582032 46.710937 29.054688 70.867187 2.429687 3.359375 7.117187 4.109375 10.472656 1.683594 3.355469-2.429687 4.109375-7.117187 1.683594-10.472656-15.855469-21.917969-23.148438-47.378907-26.476563-64.878907-1.140625-5.992187 3.210938-11.765624 9.214844-12.496093 32.824219-4.011719 54.484375-14.066407 66.871094-21.796875 3.34375-2.082032 7.773437-2.074219 11.121093 0 20.082032 12.46875 43.554688 18.964844 66.871094 21.796875 7.773438.941406 10.097656 8.238281 8.71875 15-3.597656 17.613281-12.0625 46.300781-31.300781 69.175781-12.25 14.566406-28.585937 25.65625-46.777344 31.328125-1.980469.621094-4.160156.621094-6.144531 0-12.253906-3.824219-23.417969-9.828125-33.1875-17.847656-3.199219-2.628907-7.925781-2.164063-10.554688 1.035156-2.628906 3.203125-2.164062 7.929687 1.035157 10.558594 11.265625 9.25 24.132812 16.171875 38.238281 20.574219 3.328125 1.039062 7.167969 1.398437 10.765625.933593-.273437 6.234375-.472656 12.585938-.578125 19.023438 0 0-.09375 6.957031-.105469 10.175781-4.285156 4.308594-12.507812 13.9375-16.601562 27.730469-3.542969 11.9375 5.644531 24.300781 18.085937 24.300781h48.925782c10.40625 0 18.875-8.46875 18.875-18.875v-51.5625c0-1.519531 1.230468-2.753906 2.746093-2.753906h51.1875c1.519531 0 2.753907 1.234375 2.753907 2.753906v51.5625c0 10.40625 8.464843 18.875 18.875 18.875h48.925781c12.453125 0 21.621093-12.390625 18.085937-24.300781-4.09375-13.792969-12.316406-23.421875-16.601562-27.730469-.015625-3.207031-.101563-10.335938-.105469-10.375-.144531-8.578125-.4375-16.921875-.863281-24.996094 3.121094 1.394532 6.410156 2.394532 9.789062 2.96875.003906 8.007813 3.078125 15.558594 8.691406 21.289063 2.597657 2.648437 6.070313 4.109375 9.78125 4.109375 3.601563 0 7.007813-1.386719 9.582032-3.910156l4.003906-3.925782 33.21875 45.570313c4.441406 6.09375 10.972656 10.214843 18.386719 11.605469 0 0 36.007812 6.757812 36.042969 6.765624 10.28125 1.925782 20.097656-7.683593 18.382812-18.007812zm-271.613281-68.359375c15.378906-21.050782 23.578125-45.023438 27.933594-64.632813.015625-.070312.199218-.984375.226562-.984375 7.089844.222656 14.15625-.101562 21.21875-.742187.058594-.007813.121094-.011719.179688-.019531 13.863281-1.40625 27.394531-4.589844 40.425781-9.539063 4.0625 6.617187 11.777344 22.269531 17.679687 52.746094 1.851563 9.511719 3.242188 19.09375 4.355469 28.714843h-116.269531c.191406-.234374 3.042969-3.914062 4.25-5.542968zm141.757812-51.722656c5.988282 7.371093 11.6875 15.015624 16.519532 23.203124l-33.167969 18.445313c-.097656-.648437-4.453125-26.382813-7.925781-38.28125-3.433594-12.292969-7.039063-21.316406-10.191406-27.777344 15.257812 3.925781 27.042968 14.914063 34.765624 24.410157zm31.988282-189.703126c-22.949219-10.878906-47.980469-17.4375-72.980469-21.457031-22.363281-3.597656-45.039063-5.136719-67.683594-5.136719-23.066406 0-46.140625 1.636719-68.910156 5.371094-25.238281 4.144532-50.273437 10.8125-73.359375 21.992188-.753906.363281-1.503906.726562-2.246094 1.109375-.039062.019531-.082031.039062-.121094.058593 4.78125-36.582031 29.625-63.789062 74.035157-80.992187 22.570312-8.742187 46.324219-13.171875 70.601562-13.171875 24.277344 0 48.03125 4.429688 70.597657 13.171875 44.410156 17.203125 69.257812 44.40625 74.039062 80.992187-.046875-.023437-.101562-.050781-.148438-.074218-1.265624-.636719-2.542968-1.257813-3.824218-1.863282zm18.34375-6.40625c10.710937 1.476563 18.988281 10.6875 18.988281 21.796876 0 11.113281-8.277344 20.328124-18.988281 21.800781.015625-.101563.023437-.203125.039062-.304688 1.914063-14.238281 1.914063-28.75 0-42.992187-.015625-.101563-.023437-.199219-.039062-.300782zm-159.003906-123.695312c48.113281 0 90.839843 23.484375 117.339843 59.585938-11.550781-8.785157-25.339843-16.332032-41.328125-22.523438-24.304687-9.414062-49.878906-14.1875-76.015625-14.1875s-51.714843 4.773438-76.019531 14.1875c-15.980469 6.1875-29.773438 13.734375-41.320312 22.519531 26.5-36.101562 69.226562-59.582031 117.34375-59.582031zm-178.003907 145.496094c0-11.109375 8.277344-20.324219 18.988281-21.800782-.015624.101563-.023437.203126-.035156.308594-1.921875 14.335938-1.910156 28.953125.019532 43.289063-10.703126-1.484375-18.972657-10.691407-18.972657-21.796875zm129.136719 120.457031c-13.257812-3.289063-26.199219-8.222656-37.800781-15.460937-.019531-.011719-.039063-.019532-.054688-.03125-4.03125-2.5-8.675781-3.824219-13.433593-3.824219-1.367188 0-2.753907.113281-4.105469.328125-19.957031-20.472656-33.167969-45.757813-38.527344-73.265625-.023437-.222657-.050781-.449219-.09375-.671875-.191406-1-.367187-2-.539063-3.003906 5.527344 5.949218 12.558594 12.640624 21.21875 19.328124 23.316407 18.015626 63.441407 39.488282 122.203126 39.488282 9.449218 0 18.871093-.566406 28.003906-1.6875 4.113281-.5 7.035156-4.242188 6.535156-8.355469-.503906-4.109375-4.242188-7.035156-8.355469-6.53125-8.535156 1.042969-17.339843 1.574219-26.183593 1.574219-43.5 0-81.34375-12.085938-112.472657-35.925782-15.09375-11.558593-24.863281-23.238281-29.902343-30.078124.152343.078124 20.804687-9.695313 29.617187-12.722657 36.296875-12.339843 74.550781-16.605469 112.753906-16.605469 44.894531 0 91.980469 5.773438 133.125 24.742188 3.125 1.441406 6.199219 2.953125 9.21875 4.601562-9.851562 13.296876-37.664062 44.832032-88.097656 58.867188-3.988281 1.109375-6.324219 5.246094-5.214844 9.234375 1.113281 3.992187 5.242188 6.328125 9.238281 5.214844 42.125-11.722657 69.566407-34.277344 85.125-51.035157-.011718.070313-.023437.140626-.035156.214844-.101562.585938-.207031 1.167969-.316406 1.753906-12.308594 66.339844-69.765625 117.023438-139.179688 118.839844-.039062 0-.078124 0-.117187.003906-.574219.015626-7.445313.226563-7.480469-.023437-1.652344-10.90625-11.433594-19.488281-22.179687-20.800781-7.625-.933594-15.339844-2.277344-22.949219-4.167969zm5.523438 212.171875c0 2.136719-1.738282 3.875-3.875 3.875h-48.925782c-2.597656 0-4.4375-2.574219-3.703125-5.035156 4.21875-14.21875 14.40625-22.898438 14.484375-22.964844 1.726563-1.425781 2.726563-3.546875 2.726563-5.785156 0-1.832032.007812-3.664063.019531-5.519532h39.277344v35.429688zm68.933593-69.316406h-51.1875c-9.785156 0-17.746093 7.964844-17.746093 17.753906v1.136719h-39.023438c.15625-5.714844.378906-11.363281.664062-16.882813 5.378907-2.292968 10.558594-5.011718 15.523438-8.09375 5.074219-3.152344 9.894531-6.726562 14.398438-10.652344h132.21875c.082031.992188.164062 2.003907.253906 3.085938.8125 10.308594 1.378906 21.199219 1.683594 32.542969h-39.027344v-1.136719c-.003906-9.789062-7.96875-17.753906-17.757813-17.753906zm74.261719 68.160156c.730469 2.464844-1.136719 5.03125-3.707031 5.03125h-48.925781c-2.136719 0-3.875-1.738281-3.875-3.875v-35.425781h39.273437c.011719 1.851562.019531 3.6875.019531 5.519531 0 2.214844 1.003906 4.335938 2.703125 5.761719.101563.085937 10.289063 8.765625 14.511719 22.988281zm-4.609375-87.792969c-.339844-3.90625-.730469-7.808593-1.160156-11.707031l37.859375-21.050781c2.089844 5.152343 3.410156 9.992187 3.949218 14.480469l-20.300781 19.882812c-2.105469 2.105469-3.996093 4.53125-5.441406 7.179688-5.167969-.632813-10.054687-2.835938-14.011719-6.363282l-.742187-.664062c-.011719-.09375-.109375-1.265625-.152344-1.757813zm26.203125 23.207031c.039062-3.972656 1.765625-8.070312 4.640625-10.882812l27.980469-27.40625c2.90625-2.847656 6.746094-4.414062 10.8125-4.414062 3.753906 0 7.289062 1.320312 10.09375 3.742187l-49.992188 48.964844c-2.324218-2.808594-3.574218-6.316407-3.535156-10.003907zm108.152344 66.703126c-.078125.089843-.3125.308593-.671875.242187l-36.042969-6.761719c-3.644531-.683594-6.851562-2.710937-9.03125-5.703125l-34.511719-47.339843 5.777344-5.652344s42.058594 42.941406 42.074219 42.957031c2.816406 2.875 7.65625 3 10.605468.109375 2.960938-2.898438 3.007813-7.644531.113282-10.605469l-42.078125-42.957031 5.773437-5.65625 46.613282 35.480469c2.949218 2.246093 4.90625 5.492187 5.511718 9.148437l6.015625 36.175782c.015625.097656.054688.320312-.148437.5625zm0 0"/></svg>