<?xml version="1.0" encoding="UTF-8"?>
<svg xmlns="http://www.w3.org/2000/svg" xmlns:xlink="http://www.w3.org/1999/xlink" version="1.1" id="Capa_1" x="0px" y="0px" viewBox="0 0 512 512" style="enable-background:new 0 0 512 512;" xml:space="preserve" width="512" height="512">
<g>
	<path style="fill:#FF8A98;" d="M412.35,485.827c-9.272-78.119-75.736-138.701-156.35-138.701S108.922,407.707,99.65,485.827&#10;&#9;&#9;c-1.181,9.95,6.679,18.673,16.698,18.673h77.29L256,476.75l62.361,27.75h77.29C405.671,504.5,413.531,495.776,412.35,485.827z"/>
	<path style="fill:#FD5C6F;" d="M195.651,485.827C202.997,423.929,246.253,373.05,304,354.585c-15.134-4.839-31.26-7.459-48-7.459&#10;&#9;&#9;c-80.614,0-147.078,60.581-156.349,138.701c-1.181,9.95,6.679,18.673,16.698,18.673h77.29l8.246-3.669l-0.339-0.276&#10;&#9;&#9;C197.396,497.076,194.957,491.67,195.651,485.827z"/>
	<path style="fill:#F8EA69;" d="M165.443,408.729l-18.118,18.118c-8.665,8.665-22.714,8.665-31.379,0l0,0&#10;&#9;&#9;c-8.665-8.665-8.665-22.714,0-31.379l18.118-18.118c8.665-8.665,22.714-8.665,31.379,0l0,0&#10;&#9;&#9;C174.108,386.014,174.108,400.063,165.443,408.729z"/>
	<path style="fill:#FCF5AF;" d="M345.3,408.729l18.118,18.118c8.665,8.665,22.714,8.665,31.379,0l0,0&#10;&#9;&#9;c8.665-8.665,8.665-22.714,0-31.379l-18.118-18.118c-8.665-8.665-22.714-8.665-31.379,0l0,0&#10;&#9;&#9;C336.635,386.014,336.635,400.063,345.3,408.729z"/>
	<path style="fill:#687DAA;" d="M360.871,380.059c6.525-8.775,5.791-20.972-1.739-28.9l-40.356-42.484&#10;&#9;&#9;c-5.564-1.015-9.032-1.595-9.511-1.675H202.734c-0.479,0.08-3.945,0.66-9.51,1.675l-40.356,42.484&#10;&#9;&#9;c-7.53,7.928-8.264,20.125-1.739,28.9l30.096,40.467c2.926,3.933,2.965,9.309,0.097,13.285l-9.814,13.6&#10;&#9;&#9;c-5.659,7.844-5.668,18.427-0.021,26.28l22.153,30.809h37.084l25.278-29l23.919,29h0.629h37.813l22.152-30.809&#10;&#9;&#9;c5.646-7.853,5.637-18.436-0.021-26.28l-9.814-13.6c-2.869-3.976-2.829-9.352,0.095-13.285L360.871,380.059z"/>
	<polygon style="fill:#DAE2FE;" points="279.919,504.5 300.726,354.5 209.915,354.5 230.722,504.5 &#9;"/>
	<path style="fill:#E9EFFF;" d="M309.113,334.816L256,388.866c0,0,20.543,37.152,33.836,37.152c7.884,0,19.173-25.088,27.054-45.503&#10;&#9;&#9;C322.878,365.002,319.91,347.463,309.113,334.816z"/>
	<path style="fill:#E9EFFF;" d="M202.887,334.816L256,388.866c0,0-20.543,37.152-33.836,37.152&#10;&#9;&#9;c-7.884,0-19.173-25.088-27.054-45.503C189.122,365.002,192.09,347.463,202.887,334.816z"/>
	<path style="fill:#DF8A57;" d="M365.629,260.773c6.338-16.78,9.817-34.964,9.817-53.963c0-84.364-68.39-152.754-152.754-152.754&#10;&#9;&#9;S69.939,122.446,69.939,206.81c0,18.999,3.479,37.183,9.817,53.963H365.629z"/>
	<path style="fill:#EAAA83;" d="M266.427,18.5c-35.8,0-69.093,10.716-96.857,29.11c-14.76,9.779-21.225,28.14-16.27,45.137&#10;&#9;&#9;c25.949,89.015,108.15,154.054,205.544,154.054c27.973,0,54.689-5.372,79.182-15.13c2.634-12.096,4.034-24.652,4.034-37.538&#10;&#9;&#9;C442.061,97.134,363.427,18.5,266.427,18.5z"/>
	<circle style="fill:#FFE4C2;" cx="98.455" cy="249.708" r="41.871"/>
	<circle style="fill:#FFE4C2;" cx="413.545" cy="249.708" r="41.871"/>
	<path style="fill:#FFF2DE;" d="M334.239,213.202c-55.422,0-103.993-44.463-131.545-77.248&#10;&#9;&#9;c-16.831-20.028-47.672-20.037-64.421,0.06c-22.203,26.642-35.562,60.912-35.562,98.305&#10;&#9;&#9;C102.709,319.31,171.438,388.022,256.429,388c84.855-0.022,153.637-68.818,153.637-153.678c0-6.551-0.414-13.005-1.212-19.339&#10;&#9;&#9;c-0.866-6.866-7.542-11.397-14.222-9.59C376.05,210.421,355.649,213.202,334.239,213.202z"/>
	<g>
		<g>
			<path style="fill:#FFE4C2;" d="M167.931,234.319c0.001-37.184,13.214-71.277,35.195-97.855c-0.143-0.17-0.29-0.342-0.432-0.511&#10;&#9;&#9;&#9;&#9;c-16.831-20.028-47.672-20.037-64.421,0.061c-22.203,26.642-35.562,60.912-35.562,98.305&#10;&#9;&#9;&#9;&#9;C102.709,319.31,171.438,388.022,256.429,388c11.168-0.003,22.054-1.208,32.545-3.473&#10;&#9;&#9;&#9;&#9;C219.719,369.591,167.93,308.094,167.931,234.319z"/>
		</g>
	</g>
	<g>
		<g>
			<g>
				<g>
					<ellipse style="fill:#FFA1AC;" cx="173.218" cy="276.654" rx="30.545" ry="24.325"/>
				</g>
				<g>
					<path style="fill:#FFA1AC;" d="M308.237,276.654c0,13.434,13.675,24.325,30.545,24.325c3.307,0,6.492-0.419,9.474-1.193&#10;&#9;&#9;&#9;&#9;&#9;&#9;c12.232-3.175,21.071-12.331,21.071-23.132c0-13.434-13.675-24.324-30.545-24.324&#10;&#9;&#9;&#9;&#9;&#9;&#9;C321.913,252.33,308.237,263.22,308.237,276.654z"/>
				</g>
			</g>
		</g>
		
			<line style="fill:none;stroke:#000000;stroke-width:15;stroke-linecap:round;stroke-linejoin:round;stroke-miterlimit:10;" x1="191.019" y1="240.752" x2="191.019" y2="253.239"/>
		
			<line style="fill:none;stroke:#000000;stroke-width:15;stroke-linecap:round;stroke-linejoin:round;stroke-miterlimit:10;" x1="320.981" y1="240.752" x2="320.981" y2="253.239"/>
		<path style="fill:none;stroke:#000000;stroke-width:15;stroke-linecap:round;stroke-linejoin:round;stroke-miterlimit:10;" d="&#10;&#9;&#9;&#9;M238.868,252.867c4.166,4.78,10.293,7.805,17.132,7.805c6.838,0,12.966-3.025,17.132-7.805"/>
	</g>
	<path style="fill:#FCF5AF;" d="M385.806,59.8l-25.15-45.624c-4.907-8.902-17.701-8.902-22.608,0l-23.56,42.74&#10;&#9;&#9;c-5.091,9.235-18.364,9.235-23.455,0l-23.56-42.739c-4.907-8.902-17.701-8.902-22.608,0l-23.56,42.74&#10;&#9;&#9;c-5.091,9.235-18.364,9.235-23.455,0l-23.56-42.74c-4.907-8.902-17.701-8.902-22.608,0l-25.262,45.827&#10;&#9;&#9;c-4.155,7.537-14.239,9.254-20.654,3.517L86.918,46.662c-8.315-7.437-21.512-1.535-21.512,9.621v26.142v41.735&#10;&#9;&#9;c0,12.338,10.002,22.339,22.339,22.339h336.51c12.338,0,22.339-10.002,22.339-22.339V82.425V56.283&#10;&#9;&#9;c0-11.156-13.197-17.058-21.512-9.621L406.46,63.317C400.045,69.055,389.961,67.338,385.806,59.8z"/>
	<g>
		<path style="fill:#F8EA69;" d="M186.29,104.207c0-16.493,7.506-31.232,19.287-40.992c-3.112-0.96-5.931-3.043-7.726-6.299&#10;&#9;&#9;&#9;l-23.56-42.74c-4.907-8.902-17.701-8.902-22.608,0l-25.262,45.827c-4.155,7.537-14.239,9.254-20.654,3.517L86.918,46.662&#10;&#9;&#9;&#9;c-8.315-7.437-21.512-1.535-21.512,9.621v26.142v41.735c0,12.338,10.002,22.339,22.339,22.339h119.479&#10;&#9;&#9;&#9;C194.503,136.778,186.29,121.455,186.29,104.207z"/>
	</g>
	<g>
		
			<line style="fill:none;stroke:#000000;stroke-width:15;stroke-linecap:round;stroke-linejoin:round;stroke-miterlimit:10;" x1="256" y1="397.5" x2="256" y2="504.486"/>
		<path style="fill:none;stroke:#000000;stroke-width:15;stroke-linecap:round;stroke-linejoin:round;stroke-miterlimit:10;" d="&#10;&#9;&#9;&#9;M362.763,426.42c-18.432,28.256-59.583,47.928-107.392,47.928c-46.993,0-87.555-19.007-106.429-46.49"/>
		<path style="fill:none;stroke:#000000;stroke-width:15;stroke-linecap:round;stroke-linejoin:round;stroke-miterlimit:10;" d="&#10;&#9;&#9;&#9;M117.741,429.177c-9.396,17.191-15.678,36.327-18.09,56.65c-1.181,9.95,6.679,18.673,16.698,18.673h279.303&#10;&#9;&#9;&#9;c10.019,0,17.879-8.724,16.698-18.673c-2.318-19.53-8.21-37.964-17.005-54.629"/>
		<path style="fill:none;stroke:#000000;stroke-width:15;stroke-linecap:round;stroke-linejoin:round;stroke-miterlimit:10;" d="&#10;&#9;&#9;&#9;M168.415,405.051c-0.84,1.303-1.831,2.537-2.972,3.678l-18.118,18.118c-8.665,8.665-22.714,8.665-31.379,0l0,0&#10;&#9;&#9;&#9;c-8.665-8.665-8.665-22.714,0-31.379l18.118-18.118c3.249-3.249,7.256-5.28,11.452-6.093"/>
		<path style="fill:none;stroke:#000000;stroke-width:15;stroke-linecap:round;stroke-linejoin:round;stroke-miterlimit:10;" d="&#10;&#9;&#9;&#9;M342.923,405.926c0.703,0.982,1.495,1.92,2.377,2.803l18.118,18.118c8.665,8.665,22.714,8.665,31.379,0l0,0&#10;&#9;&#9;&#9;c8.665-8.665,8.665-22.714,0-31.379l-18.118-18.118c-2.718-2.718-5.967-4.584-9.412-5.597"/>
		<path style="fill:none;stroke:#000000;stroke-width:15;stroke-linecap:round;stroke-linejoin:round;stroke-miterlimit:10;" d="&#10;&#9;&#9;&#9;M152.868,351.159c-7.53,7.928-8.264,20.125-1.739,28.9l30.096,40.467c2.926,3.933,2.965,9.309,0.097,13.285l-9.814,13.6&#10;&#9;&#9;&#9;c-5.659,7.844-5.668,18.427-0.021,26.28l22.153,30.809"/>
		<path style="fill:none;stroke:#000000;stroke-width:15;stroke-linecap:round;stroke-linejoin:round;stroke-miterlimit:10;" d="&#10;&#9;&#9;&#9;M318.361,504.5l22.152-30.809c5.646-7.853,5.637-18.436-0.021-26.28l-9.814-13.6c-2.869-3.976-2.829-9.352,0.096-13.285&#10;&#9;&#9;&#9;l30.097-40.467c6.525-8.775,5.791-20.972-1.739-28.9"/>
		
			<line style="fill:none;stroke:#000000;stroke-width:15;stroke-linecap:round;stroke-linejoin:round;stroke-miterlimit:10;" x1="220.041" y1="427.494" x2="230.722" y2="504.5"/>
		
			<line style="fill:none;stroke:#000000;stroke-width:15;stroke-linecap:round;stroke-linejoin:round;stroke-miterlimit:10;" x1="280.091" y1="503.262" x2="290.655" y2="427.105"/>
		<path style="fill:none;stroke:#000000;stroke-width:15;stroke-linecap:round;stroke-linejoin:round;stroke-miterlimit:10;" d="&#10;&#9;&#9;&#9;M256.328,389.449c2.681,4.727,21.201,36.568,33.508,36.568c7.884,0,19.173-25.088,27.054-45.503&#10;&#9;&#9;&#9;c0.464-1.202,0.874-2.417,1.231-3.641"/>
		<path style="fill:none;stroke:#000000;stroke-width:15;stroke-linecap:round;stroke-linejoin:round;stroke-miterlimit:10;" d="&#10;&#9;&#9;&#9;M256,388.866c0,0-20.543,37.152-33.836,37.152c-7.884,0-19.173-25.088-27.054-45.503c-0.671-1.737-1.229-3.5-1.676-5.279"/>
		<path style="fill:none;stroke:#000000;stroke-width:15;stroke-linecap:round;stroke-linejoin:round;stroke-miterlimit:10;" d="&#10;&#9;&#9;&#9;M82.69,145.615c-8.201,18.736-12.751,39.434-12.751,61.195c0,3.255,0.102,6.487,0.303,9.691"/>
		<path style="fill:none;stroke:#000000;stroke-width:15;stroke-linecap:round;stroke-linejoin:round;stroke-miterlimit:10;" d="&#10;&#9;&#9;&#9;M238.289,20.743C220.738,23.57,204.057,29,188.655,36.622"/>
		<path style="fill:none;stroke:#000000;stroke-width:15;stroke-linecap:round;stroke-linejoin:round;stroke-miterlimit:10;" d="&#10;&#9;&#9;&#9;M327.228,29.309c-17.215-6.353-35.699-10.085-54.969-10.714"/>
		<path style="fill:none;stroke:#000000;stroke-width:15;stroke-linecap:round;stroke-linejoin:round;stroke-miterlimit:10;" d="&#10;&#9;&#9;&#9;M440.573,217.031c0.98-7.494,1.488-15.136,1.488-22.897c0-17.057-2.432-33.547-6.967-49.141"/>
		<path style="fill:none;stroke:#000000;stroke-width:15;stroke-linecap:round;stroke-linejoin:round;stroke-miterlimit:10;" d="&#10;&#9;&#9;&#9;M111.878,289.38c-4.214,1.425-8.728,2.198-13.423,2.198c-23.124,0-41.871-18.746-41.871-41.871s18.746-41.871,41.871-41.871&#10;&#9;&#9;&#9;c1.88,0,3.731,0.124,5.545,0.364"/>
		<path style="fill:none;stroke:#000000;stroke-width:15;stroke-linecap:round;stroke-linejoin:round;stroke-miterlimit:10;" d="&#10;&#9;&#9;&#9;M407.138,208.324c2.089-0.321,4.228-0.487,6.407-0.487c23.125,0,41.871,18.746,41.871,41.871s-18.746,41.871-41.871,41.871&#10;&#9;&#9;&#9;c-3.935,0-7.743-0.543-11.354-1.558"/>
		<path style="fill:none;stroke:#000000;stroke-width:15;stroke-linecap:round;stroke-linejoin:round;stroke-miterlimit:10;" d="&#10;&#9;&#9;&#9;M134.35,327.817c28.079,36.619,72.288,60.196,122.079,60.183c84.855-0.022,153.637-68.818,153.637-153.678&#10;&#9;&#9;&#9;c0-6.551-0.414-13.005-1.212-19.339c-0.866-6.866-7.542-11.397-14.222-9.59c-18.582,5.028-38.984,7.808-60.394,7.808&#10;&#9;&#9;&#9;c-48.196,0-91.212-33.626-119.729-63.955"/>
		<path style="fill:none;stroke:#000000;stroke-width:15;stroke-linecap:round;stroke-linejoin:round;stroke-miterlimit:10;" d="&#10;&#9;&#9;&#9;M129.005,148.338c-16.599,24.537-26.294,54.126-26.294,85.981c0,25.123,6.004,48.823,16.66,69.746"/>
		<path style="fill:none;stroke:#000000;stroke-width:15;stroke-linecap:round;stroke-linejoin:round;stroke-miterlimit:10;" d="&#10;&#9;&#9;&#9;M397.75,146.5h26.505c12.338,0,22.339-10.002,22.339-22.339V82.425V56.283c0-11.156-13.197-17.058-21.512-9.621L406.46,63.317&#10;&#9;&#9;&#9;c-6.415,5.738-16.499,4.021-20.654-3.517l-25.15-45.624c-4.907-8.902-17.701-8.902-22.608,0l-23.56,42.74&#10;&#9;&#9;&#9;c-5.091,9.235-18.364,9.235-23.455,0l-23.56-42.739c-4.907-8.902-17.701-8.902-22.608,0l-23.56,42.74&#10;&#9;&#9;&#9;c-5.091,9.235-18.364,9.235-23.455,0l-23.56-42.74c-4.907-8.902-17.701-8.902-22.608,0l-25.262,45.827&#10;&#9;&#9;&#9;c-4.155,7.537-14.239,9.254-20.654,3.517L86.918,46.662c-8.315-7.437-21.512-1.535-21.512,9.621v26.142v41.735&#10;&#9;&#9;&#9;c0,12.338,10.002,22.339,22.339,22.339h280.422"/>
	</g>
</g>















</svg>
